<svg viewBox="0 0 1080 1080" fill="none" xmlns="http://www.w3.org/2000/svg">        <defs>    <filter id="filter" x="-20%" y="-20%" width="140%" height="140%" filterUnits="objectBoundingBox" primitiveUnits="userSpaceOnUse" color-interpolation-filters="linearRGB">      <feMorphology operator="dilate" radius="20 20" in="SourceAlpha" result="morphology"/>      <feFlood flood-color="#ffffff" flood-opacity="1" result="flood"/>      <feComposite in="flood" in2="morphology" operator="in" result="composite"/>      <feMerge result="merge">            <feMergeNode in="composite" result="mergeNode"/>        <feMergeNode in="SourceGraphic" result="mergeNode1"/>        </feMerge>    </filter>  </defs>        <g id="notion-avatar" filter="url(#filter)">          <g id="notion-avatar-face" fill="#ffffff">            <title>Face/ 10</title>    <g id="Face/-10" stroke="none" stroke-width="1" fill-rule="evenodd" stroke-linecap="round" stroke-linejoin="round">        <path d="M532,379 C664.54834,379 772,486.45166 772,619 C772,751.54834 684.54834,899 592,899 C535.13263,899 351.668898,801.612202 313.752775,718.980575 L313.322946,718.989282 L312,719 C267.81722,719 232,683.18278 232,639 C232,599.134956 261.158843,566.080325 299.312086,560.00055 C325.599297,455.979213 419.809919,379 532,379 Z M295.858895,624.545187 L304.141105,655.454813" id="Path" stroke="#000000" stroke-width="24"/>    </g>      </g><g id="notion-avatar-nose">            <title>Nose/ 10</title>    <g id="Nose/-10" stroke="none" stroke-width="1" fill="none" fill-rule="evenodd" stroke-linecap="round" stroke-linejoin="round">        <path d="M631,694.380659 C660.333333,687.46022 678,677.333333 684,664 C693,644 637.033407,606.392531 660.161467,579" id="Path" stroke="#000000" stroke-width="16"/>    </g>      </g><g id="notion-avatar-mouth">            <title>Mouth/ 9</title>    <g id="Mouth/-9" stroke="none" stroke-width="1" fill="none" fill-rule="evenodd" stroke-linecap="round" stroke-linejoin="round">        <path d="M532,760 C569.387146,756.771376 597.387146,753.438043 616,750 C634.612854,746.561957 658.946187,740.228624 689,731 L667,780 C644.19345,787.762145 627.19345,792.095479 616,793 C604.80655,793.904521 588.80655,792.237855 568,788 L532,760 Z" id="Path" stroke="#000000" stroke-width="16"/>    </g>      </g><g id="notion-avatar-eyes">            <title>Eyes/ 2</title>    <g id="Eyes/-2" stroke="none" stroke-width="1" fill="none" fill-rule="evenodd">        <path d="M570,516 C587.673112,516 602,530.326888 602,548 C602,565.673112 587.673112,580 570,580 C552.326888,580 538,565.673112 538,548 C538,530.326888 552.326888,516 570,516 Z M708,516 C725.673112,516 740,530.326888 740,548 C740,565.673112 725.673112,580 708,580 C690.326888,580 676,565.673112 676,548 C676,530.326888 690.326888,516 708,516 Z" id="Combined-Shape" fill="#000000"/>    </g>      </g><g id="notion-avatar-eyebrows">            <title>Eyebrows/ 8</title>    <g id="Eyebrows/-8" stroke="none" stroke-width="1" fill="none" fill-rule="evenodd" stroke-linecap="round" stroke-linejoin="round">        <g id="Group" transform="translate(530.000000, 490.000000)" stroke="#000000" stroke-width="16">            <path d="M64,10 C59.1947065,3.33333333 51.1947065,0 40,0 C28.8052935,0 15.4719602,3.33333333 0,10" id="Path"/>            <path d="M218,10 C213.194706,3.33333333 205.194706,0 194,0 C182.805294,0 169.47196,3.33333333 154,10" id="Path" transform="translate(186.000000, 5.000000) scale(-1, 1) translate(-186.000000, -5.000000) "/>        </g>    </g>      </g><g id="notion-avatar-glasses">            <title>Glasses/ 0</title>    <g id="Glasses/-0" stroke="none" stroke-width="1" fill="none" fill-rule="evenodd"/>      </g><g id="notion-avatar-hair">        <g id="Hairstyle/ 32"><path id="Path" fill-rule="evenodd" clip-rule="evenodd" d="M579.545 232.012C579.545 232.012 517.5 263.639 508.545 270.012C545.545 245.012 631.545 258.012 631.545 258.012C631.545 258.012 553.932 276.63 545.205 284.512C545.205 284.512 557.545 270.012 595.545 270.012C633.545 270.012 678.545 289.012 678.545 289.012C678.545 289.012 568.892 313.613 553.762 333.11C552.123 335.221 586 314 632 314C678 314 730 289 730 289C730 289 701.829 325.943 687 333C652.422 349.455 643.358 341.795 632 352C640.504 346.686 679.545 344.012 696 346C712.455 347.988 737 339 737 339C737 339 720.315 366.83 702 370C744.964 388.258 748 392 763 416C778 440 786.805 517 786.805 517C786.805 517 770.365 499.07 762.687 491.187C766.667 528.004 761.59 561.942 747.458 593C747.998 565.779 744.555 536.785 737.13 506.019C732.583 487.181 727 460 712.248 445.855C697.496 431.71 632 410 553 410C474 410 428.104 430.958 412 428C404.393 426.603 393.492 432.444 379.296 445.523L380.068 448.708C388.266 482.686 392.365 505.363 392.365 516.739C392.365 528.233 383.924 572.725 367.044 650.215L366 655L328.117 564.825H287.146C271.78 507.748 268.106 468.654 276.123 447.543C284.14 426.432 322.047 397.666 306 410C300 340 328 313 392 270C456 227 579.545 232.012 579.545 232.012Z" fill="black" stroke="black" stroke-width="12" stroke-linecap="round" stroke-linejoin="round"/></g>      </g><g id="notion-avatar-accessories">        <g id="Accessories/ 14"><g id="Group"><path id="Path" d="M287.695 658.293C276.76 647.358 276.76 629.63 287.695 618.695C298.63 607.76 316.358 607.76 327.293 618.695C337.267 628.669 338.143 644.297 329.921 655.264L362.083 687.426C366.925 692.268 366.925 700.119 362.083 704.962C357.24 709.804 349.389 709.804 344.547 704.962L306.04 666.456C299.371 666.111 292.792 663.389 287.695 658.293Z" fill="white" stroke="black" stroke-width="8" stroke-linecap="round" stroke-linejoin="round"/><rect id="Rectangle" width="8" height="16" rx="4" transform="matrix(-0.707107 0.707107 0.707107 0.707107 295.615 623.221)" fill="black"/></g></g>      </g><g id="notion-avatar-details">            <title>Details/ 9</title>    <g id="Details/-9" stroke="none" stroke-width="1" fill="none" fill-rule="evenodd" stroke-linecap="round" stroke-linejoin="round">        <path d="M523.138691,666.607842 L451.314079,671.630308 C463.098831,668.13306 474.976591,665.965897 486.947359,665.128819 C498.918128,664.291741 510.981905,664.784749 523.138691,666.607842 Z M734.861309,666.607842 C749.483691,665.134021 760.412369,664.57364 767.647342,664.926697 L767.647342,664.926697 Z M522.022587,650.646817 L438.227207,656.506361 C452.007087,652.8696 465.879975,650.562924 479.845871,649.586333 C493.811768,648.609742 507.870673,648.963237 522.022587,650.646817 Z M735.977413,650.646817 C750.919604,649.423529 762.096932,648.92528 769.509399,649.15207 L769.509399,649.15207 Z M520.906484,634.685793 L425.140335,641.382414 C440.915342,637.60614 456.783359,635.159951 472.744383,634.043847 C488.705408,632.927744 504.759442,633.141725 520.906484,634.685793 Z M737.093516,634.685793 C752.493592,633.665689 764.019757,633.242297 771.672009,633.415616 L771.672009,633.415616 Z" id="Combined-Shape" stroke="#000000" stroke-width="4"/>    </g>      </g><g id="notion-avatar-beard">            <title>Beard/ 0</title>    <g id="Beard/-0" stroke="none" stroke-width="1" fill="none" fill-rule="evenodd"/>      </g>        </g>        </svg>